<svg xmlns="http://www.w3.org/2000/svg" height="24" viewBox="0 -960 960 960" width="24"><path d="M375.385-240q-21.539 0-40.577-9.769-19.039-9.769-31.577-27.308L160-480l143.231-201.385q12.538-17.538 31.192-28.077Q353.077-720 375.385-720h360q26.846 0 45.731 18.884Q800-682.231 800-655.385v350.77q0 26.846-18.884 45.731Q762.231-240 735.385-240h-360ZM760-280v-400 400Zm-384.615 0h360q9.23 0 16.923-7.692Q760-295.385 760-304.615v-350.77q0-9.23-7.692-16.923Q744.615-680 735.385-680h-360q-11.539 0-21.923 5.769-10.385 5.769-16.539 14.231L208.769-480l128.154 180q6.154 8.462 16.539 14.231Q363.846-280 375.385-280Zm66.769-67.692 104-104 104 104L678.462-376l-104-104 104-104-28.308-28.308-104 104-104-104L413.846-584l104 104-104 104 28.308 28.308Z"/></svg>